<?xml version="1.0" encoding="UTF-8"?>
<svg width="11px" height="7px" viewBox="0 0 11 7" version="1.1" xmlns="http://www.w3.org/2000/svg" xmlns:xlink="http://www.w3.org/1999/xlink">
    <!-- Generator: Sketch 56.2 (81672) - https://sketch.com -->
    <title>arrow_expanded</title>
    <desc>Created with Sketch.</desc>
    <defs>
        <polygon id="path-1" points="0.0004 0 10.666 0 10.666 6 0.0004 6"></polygon>
    </defs>
    <g id="page-1" stroke="none" stroke-width="1" fill="none" fill-rule="evenodd">
        <g id="arrow_expanded" transform="translate(5.500000, 3.500000) rotate(-270.000000) translate(-5.500000, -3.500000) translate(2.500000, -2.000000)">
            <g id="Group-3" transform="translate(3.000000, 5.500000) rotate(-90.000000) translate(-3.000000, -5.500000) translate(-2.500000, 2.500000)">
                <mask id="mask-2" fill="white">
                    <use xlink:href="#path-1"></use>
                </mask>
                <g id="Clip-2"></g>
                <path d="M10.4684,0.198 C10.3364,0.066 10.1804,-8.8817842e-16 9.9994,-8.8817842e-16 L0.6664,-8.8817842e-16 C0.4864,-8.8817842e-16 0.3294,0.066 0.1974,0.198 C0.0664,0.33 0.0004,0.486 0.0004,0.667 C0.0004,0.847 0.0664,1.004 0.1974,1.135 L4.8644,5.802 C4.9964,5.934 5.1524,6 5.3334,6 C5.5134,6 5.6704,5.934 5.8014,5.802 L10.4684,1.135 C10.6004,1.004 10.6664,0.847 10.6664,0.667 C10.6664,0.486 10.6004,0.33 10.4684,0.198" id="Fill-1" fill="#6D0F3F" mask="url(#mask-2)"></path>
            </g>
        </g>
    </g>
</svg>