<?xml version="1.0" encoding="UTF-8"?>
<svg width="22px" height="16px" viewBox="0 0 22 16" version="1.1" xmlns="http://www.w3.org/2000/svg" xmlns:xlink="http://www.w3.org/1999/xlink">
    <!-- Generator: Sketch 52.5 (67469) - http://www.bohemiancoding.com/sketch -->
    <title>baseline</title>
    <desc>Created with Sketch.</desc>
    <defs>
        <polygon id="path-1" points="0.0572 0.0001 17.55 0.0001 17.55 16 0.0572 16"></polygon>
        <polygon id="path-3" points="0 0.2003 4.834 0.2003 4.834 13 0 13"></polygon>
    </defs>
    <g id="Page-1" stroke="none" stroke-width="1" fill="none" fill-rule="evenodd">
        <g id="Icons" transform="translate(-98.000000, -44.000000)">
            <g id="baseline" transform="translate(98.000000, 44.000000)">
                <g id="Group-11">
                    <polygon id="Fill-1" fill="#B20F68" points="6.381 16 15.169 16 15.169 13.914 6.381 13.914"></polygon>
                    <g id="Group-10">
                        <path d="M10.4666,11.3458 C11.2876,11.3718 11.9766,10.7238 12.0036,9.9018 C12.0296,9.0818 11.3846,8.3938 10.5636,8.3678 L3.9826,3.1888 L9.0236,9.9008 C9.0476,10.6808 9.6756,11.3198 10.4666,11.3458" id="Fill-2" fill="#B20F68"></path>
                        <g id="Group-6" transform="translate(4.000000, 0.000000)">
                            <mask id="mask-2" fill="white">
                                <use xlink:href="#path-1"></use>
                            </mask>
                            <g id="Clip-5"></g>
                            <path d="M6.7752,0.0001 C4.3022,0.0001 1.9592,0.8321 0.0572,2.3561 L0.4152,2.6381 L1.0632,3.1481 C2.4932,2.0741 4.2342,1.3931 6.1252,1.2651 L6.1252,3.7331 L7.4252,3.7331 L7.4252,1.2651 C9.3162,1.3931 11.0572,2.0741 12.4872,3.1481 L10.9272,5.0071 L11.9242,5.8441 L13.4722,3.9991 C14.7442,5.2551 15.6642,6.8651 16.0732,8.6681 L13.7882,9.0711 L14.0142,10.3531 L16.2722,9.9541 C16.2952,10.2251 16.3082,10.4991 16.3082,10.7751 C16.3082,12.3371 15.9302,13.8131 15.2602,15.1161 L13.3662,14.0221 L12.7162,15.1491 L14.1892,16.0001 L16.2032,16.0001 C17.0822,14.4191 17.5502,12.6331 17.5502,10.7751 C17.5502,7.8971 16.4292,5.1911 14.3942,3.1561 C12.3592,1.1211 9.6532,0.0001 6.7752,0.0001" id="Fill-4" fill="#505E67" mask="url(#mask-2)"></path>
                        </g>
                        <g id="Group-9" transform="translate(0.000000, 3.000000)">
                            <mask id="mask-4" fill="white">
                                <use xlink:href="#path-3"></use>
                            </mask>
                            <g id="Clip-8"></g>
                            <path d="M3.116,0.2003 C1.107,2.2303 0,4.9173 0,7.7753 C0,9.6333 0.468,11.4193 1.347,13.0003 L3.361,13.0003 L4.834,12.1493 L4.183,11.0223 L2.29,12.1163 C1.62,10.8133 1.242,9.3373 1.242,7.7753 C1.242,7.4983 1.255,7.2253 1.278,6.9543 L3.536,7.3523 L3.762,6.0713 L1.477,5.6683 C1.863,3.9653 2.718,2.4443 3.882,1.2213 L3.423,0.6093 L3.116,0.2003 Z" id="Fill-7" fill="#505E67" mask="url(#mask-4)"></path>
                        </g>
                    </g>
                </g>
            </g>
        </g>
    </g>
</svg>