<?xml version="1.0" encoding="UTF-8"?>
<svg width="13px" height="16px" viewBox="0 0 13 16" version="1.1" xmlns="http://www.w3.org/2000/svg" xmlns:xlink="http://www.w3.org/1999/xlink">
    <!-- Generator: Sketch 52.5 (67469) - http://www.bohemiancoding.com/sketch -->
    <title>Delete</title>
    <desc>Created with Sketch.</desc>
    <g id="Page-1" stroke="none" stroke-width="1" fill="none" fill-rule="evenodd">
        <g id="Icons" transform="translate(-539.000000, -44.000000)" fill="#0077C8">
            <g id="delete" transform="translate(539.000000, 44.000000)">
                <g id="Group-2">
                    <path d="M11.6463238,3.79961905 L1.50765714,3.79961905 L1.50765714,3.04380952 C1.50765714,2.98438095 1.53432381,2.94933333 1.59375238,2.94933333 L11.5609905,2.94933333 C11.621181,2.94933333 11.6463238,2.98438095 11.6463238,3.04380952 L11.6463238,3.79961905 Z M10.7533714,14.4190476 C10.7533714,14.4792381 10.7282286,14.5051429 10.6680381,14.5051429 L2.48670476,14.5051429 C2.42651429,14.5051429 2.40060952,14.4792381 2.40060952,14.4190476 L2.40060952,4.74361905 L10.7533714,4.74361905 L10.7533714,14.4190476 Z M4.58194286,2.00533333 L8.5735619,2.00533333 L8.5735619,1.15504762 L4.58194286,1.15504762 L4.58194286,2.00533333 Z M9.52670476,2.00533333 L9.52670476,0.683428571 C9.52670476,0.41752381 9.31184762,0.211047619 9.04518095,0.211047619 C9.0200381,0.211047619 9.00251429,0.219428571 8.99413333,0.228571429 C8.98575238,0.219428571 8.96822857,0.211047619 8.95984762,0.211047619 L4.17737143,0.211047619 L4.14308571,0.211047619 L4.1088,0.211047619 C3.84289524,0.211047619 3.63641905,0.41752381 3.63641905,0.683428571 L3.63641905,2.00533333 L1.59375238,2.00533333 C1.01013333,2.00533333 0.554514286,2.46019048 0.554514286,3.04380952 L0.554514286,3.79961905 L0.554514286,4.74361905 L1.45660952,4.74361905 L1.45660952,14.4190476 C1.45660952,15.0026667 1.90308571,15.4491429 2.48670476,15.4491429 L10.6680381,15.4491429 C11.2516571,15.4491429 11.7065143,15.0026667 11.7065143,14.4190476 L11.7065143,4.74361905 L12.5994667,4.74361905 L12.5994667,3.79961905 L12.5994667,3.04380952 C12.5994667,2.46019048 12.1438476,2.00533333 11.5609905,2.00533333 L9.52670476,2.00533333 Z" id="Fill-6"></path>
                    <polygon id="Fill-7" points="8.30704762 13.6632381 9.26019048 13.6632381 9.26019048 5.85142857 8.30704762 5.85142857"></polygon>
                    <polygon id="Fill-8" points="6.10895238 13.6632381 7.06209524 13.6632381 7.06209524 5.85142857 6.10895238 5.85142857"></polygon>
                    <polygon id="Fill-9" points="3.91161905 13.6632381 4.864 13.6632381 4.864 5.85142857 3.91161905 5.85142857"></polygon>
                </g>
            </g>
        </g>
    </g>
</svg>
