<?xml version="1.0" encoding="UTF-8"?>
<svg width="14px" height="16px" viewBox="0 0 14 16" version="1.1" xmlns="http://www.w3.org/2000/svg" xmlns:xlink="http://www.w3.org/1999/xlink">
    <!-- Generator: Sketch 52.5 (67469) - http://www.bohemiancoding.com/sketch -->
    <title>Download</title>
    <desc>Created with Sketch.</desc>
    <g id="Page-1" stroke="none" stroke-width="1" fill="none" fill-rule="evenodd">
        <g id="Icons" transform="translate(-471.000000, -44.000000)" fill="#0077C8">
            <g id="download" transform="translate(471.000000, 44.000000)">
                <g id="Group">
                    <path d="M13.1548952,14.4815238 L1.05584762,14.4815238 C0.65127619,14.4815238 0.320609524,14.8121905 0.320609524,15.2167619 C0.320609524,15.6205714 0.65127619,15.952 1.05584762,15.952 L13.1625143,15.952 C13.5663238,15.952 13.8977524,15.6205714 13.8977524,15.2167619 C13.8977524,14.8121905 13.5663238,14.4815238 13.1548952,14.4815238" id="Fill-24"></path>
                    <path d="M6.56860952,11.8424381 C6.7088,11.9894857 6.9000381,12.0778667 7.10575238,12.0778667 C7.31146667,12.0778667 7.50270476,11.9894857 7.64213333,11.8424381 L11.949181,7.2192 C12.2288,6.92434286 12.2067048,6.45424762 11.9126095,6.18224762 C11.6185143,5.90339048 11.148419,5.92472381 10.876419,6.21958095 L7.84022857,9.4759619 L7.84022857,1.44853333 C7.84022857,1.0439619 7.5095619,0.714057143 7.10575238,0.714057143 C6.70118095,0.714057143 6.37051429,1.0439619 6.37051429,1.44853333 L6.37051429,9.4759619 L3.34194286,6.21958095 C3.06232381,5.92548571 2.59908571,5.90339048 2.30499048,6.18224762 C2.01165714,6.46186667 1.9895619,6.92510476 2.26841905,7.2192 L6.56860952,11.8424381 Z" id="Fill-25"></path>
                </g>
            </g>
        </g>
    </g>
</svg>
