<?xml version="1.0" encoding="UTF-8"?>
<svg width="14px" height="14px" viewBox="0 0 14 14" version="1.1" xmlns="http://www.w3.org/2000/svg" xmlns:xlink="http://www.w3.org/1999/xlink">
    <!-- Generator: Sketch 52.5 (67469) - http://www.bohemiancoding.com/sketch -->
    <defs>
        <polygon id="path-1" points="0 0.00049 14 0.00049 14 14 0 14"></polygon>
    </defs>
    <g id="Page-1" stroke="none" stroke-width="1" fill="none" fill-rule="evenodd">
        <g id="Icons" transform="translate(-572.000000, -45.000000)">
            <g id="help" transform="translate(572.000000, 45.000000)">
                <g>
                    <g id="Group-3">
                        <mask id="mask-2" fill="white">
                            <use xlink:href="#path-1"></use>
                        </mask>
                        <g id="Clip-2"></g>
                        <path d="M7,13.02329 C3.6785,13.02329 0.9772,10.32129 0.9772,7.00049 C0.9772,3.67899 3.6785,0.97699 7,0.97699 C10.3215,0.97699 13.0228,3.67899 13.0228,7.00049 C13.0228,10.32129 10.3215,13.02329 7,13.02329 M7,0.00049 C3.1311,0.00049 0,3.13089 0,7.00049 C0,10.86869 3.1311,14.00049 7,14.00049 C10.8689,14.00049 14,10.86939 14,7.00049 C14,3.13089 10.8689,0.00049 7,0.00049" id="Fill-1" fill="#0077C8"></path>
                    </g>
                    <path d="M6.79287,8.85745 C6.40577,8.85745 6.09287,9.17945 6.09287,9.56655 C6.09287,9.94455 6.39667,10.27635 6.79287,10.27635 C7.18907,10.27635 7.50267,9.94455 7.50267,9.56655 C7.50267,9.17945 7.17997,8.85745 6.79287,8.85745" id="Fill-4" fill="#0077C8"></path>
                    <path d="M6.9125,3.48544 C5.6686,3.48544 5.0974,4.22254 5.0974,4.72024 C5.0974,5.07934 5.4012,5.24524 5.6504,5.24524 C6.1481,5.24524 5.9451,4.53544 6.8852,4.53544 C7.3458,4.53544 7.7147,4.73914 7.7147,5.16264 C7.7147,5.65964 7.1981,5.94594 6.8943,6.20354 C6.6269,6.43384 6.2769,6.81184 6.2769,7.60424 C6.2769,8.08304 6.4057,8.22164 6.7837,8.22164 C7.2352,8.22164 7.3269,8.01864 7.3269,7.84364 C7.3269,7.36484 7.336,7.08834 7.8435,6.69214 C8.092,6.49824 8.8753,5.87174 8.8753,5.00584 C8.8753,4.13994 8.092,3.48544 6.9125,3.48544" id="Fill-6" fill="#0077C8"></path>
                </g>
            </g>
        </g>
    </g>
</svg>
