<?xml version="1.0" encoding="UTF-8"?>
<svg width="253px" height="155px" viewBox="0 0 253 155" version="1.1" xmlns="http://www.w3.org/2000/svg" xmlns:xlink="http://www.w3.org/1999/xlink">
    <!-- Generator: Sketch 52.5 (67469) - http://www.bohemiancoding.com/sketch -->
    <title>Group 10</title>
    <desc>Created with Sketch.</desc>
    <defs>
        <polygon id="path-1" points="0.0988 0.00016875 30.3136364 0.00016875 30.3136364 27 0.0988 27"></polygon>
        <polygon id="path-3" points="0 0.33800625 8.34963636 0.33800625 8.34963636 21.9375 0 21.9375"></polygon>
    </defs>
    <g id="Page-1" stroke="none" stroke-width="1" fill="none" fill-rule="evenodd">
        <g id="0---Getting-Started" transform="translate(-267.000000, -161.000000)">
            <g id="Group-10" transform="translate(212.000000, 161.000000)">
                <g id="Group" transform="translate(169.000000, 0.000000)">
                    <g id="Group-7" stroke="#D0D8DA" stroke-linecap="square">
                        <path d="M138,123.415094 L3.7716001e-17,123.415094" id="Line-2"></path>
                        <path d="M138,105.867925 L3.7716001e-17,105.867925" id="Line-2"></path>
                        <path d="M138,88.3207547 L3.7716001e-17,88.3207547" id="Line-2"></path>
                        <path d="M138,70.7735849 L3.7716001e-17,70.7735849" id="Line-2"></path>
                        <path d="M138,53.2264151 L3.7716001e-17,53.2264151" id="Line-2"></path>
                        <path d="M138,35.6792453 L3.7716001e-17,35.6792453" id="Line-2"></path>
                        <path d="M138,18.1320755 L3.7716001e-17,18.1320755" id="Line-2"></path>
                        <path d="M138,0.58490566 L3.7716001e-17,0.58490566" id="Line-2"></path>
                    </g>
                    <path d="M24.5714286,8.61111111 L56.8571429,8.61111111 C59.0662819,8.61111111 60.8571429,10.4019721 60.8571429,12.6111111 L60.8571429,124 L20.5714286,124 L20.5714286,12.6111111 C20.5714286,10.4019721 22.3622896,8.61111111 24.5714286,8.61111111 Z" id="Rectangle" fill="#6D0F3F"></path>
                    <path d="M81.1428571,56.8333333 L113.428571,56.8333333 C115.63771,56.8333333 117.428571,58.6241943 117.428571,60.8333333 L117.428571,123.138889 L77.1428571,123.138889 L77.1428571,60.8333333 C77.1428571,58.6241943 78.9337181,56.8333333 81.1428571,56.8333333 Z" id="Rectangle" fill="#008090"></path>
                </g>
                <g id="Group-11" transform="translate(0.000000, 16.000000)">
                    <polygon id="Fill-1" fill-opacity="0" fill="#FFFFFF" points="0 0 228.402224 0 228.402224 145 0 145"></polygon>
                    <path d="M114.030689,13.8130076 C123.710661,13.8130076 133.237998,16.2265985 141.751252,20.8354015 L114.030689,72.0770394 L114.030689,13.8130076 Z" id="Fill-3" fill="#BB668F"></path>
                    <path d="M141.751252,20.8354015 C151.701902,26.2224811 159.86871,34.3921326 165.253731,44.3464924 L114.030689,72.0770394 L141.751252,20.8354015 Z" id="Fill-4" fill="#FFB39D"></path>
                    <path d="M165.253731,44.3464705 C169.860868,52.8628258 172.273586,62.3935989 172.273586,72.0770723 L114.030689,72.0770723 L165.253731,44.3464705 Z" id="Fill-5" fill="#F6663B"></path>
                    <path d="M172.273586,72.0770394 C172.273586,86.6967083 166.779414,100.782107 156.881362,111.538152 L114.030689,72.0770394 L172.273586,72.0770394 Z" id="Fill-6" fill="#E4E78C"></path>
                    <path d="M156.881362,111.538141 C145.853268,123.522281 130.313681,130.341016 114.030689,130.341016 L114.030689,72.0770394 L156.881362,111.538141 Z" id="Fill-7" fill="#BFC039"></path>
                    <path d="M114.030689,130.341027 C94.3652136,130.341027 76.0276775,120.413657 65.2716786,103.944425 L114.030689,72.0770394 L114.030689,130.341027 Z" id="Fill-8" fill="#8BC3C6"></path>
                    <path d="M65.2717445,103.944458 C54.5157457,87.4752265 52.7939114,66.6883451 60.6934439,48.6727102 L114.030689,72.0770394 L65.2717445,103.944458 Z" id="Fill-9" fill="#008090"></path>
                    <path d="M60.6933341,48.6726883 C69.9803442,27.4927689 90.9110802,13.8131174 114.030689,13.8131174 L114.030689,72.0770394 L60.6933341,48.6726883 Z" id="Fill-10" fill="#760040"></path>
                </g>
                <g id="Group-2" transform="translate(149.000000, 89.000000)">
                    <circle id="Oval" stroke="#D0D8DA" fill="#FFFFFF" cx="32.5" cy="32.5" r="32.5"></circle>
                    <g id="baseline" transform="translate(14.539474, 15.394737)">
                        <g id="Group-11">
                            <polygon id="Fill-1" fill="#B20F68" points="11.0217273 27 26.201 27 26.201 23.479875 11.0217273 23.479875"></polygon>
                            <g id="Group-10">
                                <path d="M18.0786727,19.1460375 C19.4967636,19.1899125 20.6868545,18.0964125 20.7334909,16.7092875 C20.7784,15.3255375 19.6643091,14.1645375 18.2462182,14.1206625 L6.87903636,5.3811 L15.5862182,16.7076 C15.6276727,18.02385 16.7124,19.1021625 18.0786727,19.1460375" id="Fill-2" fill="#B20F68"></path>
                                <g id="Group-6" transform="translate(6.909091, 0.000000)">
                                    <mask id="mask-2" fill="white">
                                        <use xlink:href="#path-1"></use>
                                    </mask>
                                    <g id="Clip-5"></g>
                                    <path d="M11.7026182,0.00016875 C7.43107273,0.00016875 3.38407273,1.40416875 0.0988,3.97591875 L0.717163636,4.45179375 L1.83643636,5.31241875 C4.30643636,3.50004375 7.31361818,2.35085625 10.5798909,2.13485625 L10.5798909,6.29960625 L12.8253455,6.29960625 L12.8253455,2.13485625 C16.0916182,2.35085625 19.0988,3.50004375 21.5688,5.31241875 L18.8742545,8.44948125 L20.5963455,9.86191875 L23.2701636,6.74848125 C25.4672545,8.86798125 27.0563455,11.5848563 27.7628,14.6274188 L23.8159818,15.3074813 L24.2063455,17.4708563 L28.1065273,16.7975438 C28.1462545,17.2548562 28.1687091,17.7172313 28.1687091,18.1829813 C28.1687091,20.8188562 27.5158,23.3096063 26.3585273,25.5084188 L23.0870727,23.6622937 L21.9643455,25.5641063 L24.5086182,27.0001688 L27.9873455,27.0001688 C29.5056182,24.3322312 30.3139818,21.3183563 30.3139818,18.1829813 C30.3139818,13.3263562 28.3777091,8.75998125 24.8627091,5.32591875 C21.3477091,1.89185625 16.6737091,0.00016875 11.7026182,0.00016875" id="Fill-4" fill="#505E67" mask="url(#mask-2)"></path>
                                </g>
                                <g id="Group-9" transform="translate(0.000000, 5.062500)">
                                    <mask id="mask-4" fill="white">
                                        <use xlink:href="#path-3"></use>
                                    </mask>
                                    <g id="Clip-8"></g>
                                    <path d="M5.38218182,0.33800625 C1.91209091,3.76363125 0,8.29794375 0,13.1208187 C0,16.2561937 0.808363636,19.2700687 2.32663636,21.9380063 L5.80536364,21.9380063 L8.34963636,20.5019437 L7.22518182,18.6001312 L3.95545455,20.4462562 C2.79818182,18.2474437 2.14527273,15.7566938 2.14527273,13.1208187 C2.14527273,12.6533812 2.16772727,12.1926937 2.20745455,11.7353812 L6.10763636,12.4070062 L6.498,10.2453187 L2.55118182,9.56525625 C3.21790909,6.69144375 4.69472727,4.12475625 6.70527273,2.06094375 L5.91245455,1.02819375 L5.38218182,0.33800625 Z" id="Fill-7" fill="#505E67" mask="url(#mask-4)"></path>
                                </g>
                            </g>
                        </g>
                    </g>
                </g>
            </g>
        </g>
    </g>
</svg>