<?xml version="1.0" encoding="UTF-8" standalone="no"?>
<svg
   xmlns:dc="http://purl.org/dc/elements/1.1/"
   xmlns:cc="http://creativecommons.org/ns#"
   xmlns:rdf="http://www.w3.org/1999/02/22-rdf-syntax-ns#"
   xmlns:svg="http://www.w3.org/2000/svg"
   xmlns="http://www.w3.org/2000/svg"
   xmlns:sodipodi="http://sodipodi.sourceforge.net/DTD/sodipodi-0.dtd"
   xmlns:inkscape="http://www.inkscape.org/namespaces/inkscape"
   width="32px"
   height="32px"
   viewBox="0 0 32 32"
   version="1.1"
   id="svg900"
   sodipodi:docname="wizard-2-inactive.svg"
   inkscape:version="0.92.3 (2405546, 2018-03-11)">
  <metadata
     id="metadata906">
    <rdf:RDF>
      <cc:Work
         rdf:about="">
        <dc:format>image/svg+xml</dc:format>
        <dc:type
           rdf:resource="http://purl.org/dc/dcmitype/StillImage" />
        <dc:title>wizard-1-inactive</dc:title>
      </cc:Work>
    </rdf:RDF>
  </metadata>
  <defs
     id="defs904" />
  <sodipodi:namedview
     pagecolor="#ffffff"
     bordercolor="#666666"
     borderopacity="1"
     objecttolerance="10"
     gridtolerance="10"
     guidetolerance="10"
     inkscape:pageopacity="0"
     inkscape:pageshadow="2"
     inkscape:window-width="1920"
     inkscape:window-height="1137"
     id="namedview902"
     showgrid="false"
     inkscape:zoom="7.375"
     inkscape:cx="16"
     inkscape:cy="16"
     inkscape:window-x="1912"
     inkscape:window-y="-8"
     inkscape:window-maximized="1"
     inkscape:current-layer="Page-1" />
  <!-- Generator: Sketch 52.5 (67469) - http://www.bohemiancoding.com/sketch -->
  <title
     id="title890">wizard-1-inactive</title>
  <desc
     id="desc892">Created with Sketch.</desc>
  <g
     id="Page-1"
     stroke="none"
     stroke-width="1"
     fill="none"
     fill-rule="evenodd">
    <circle
       style="fill:#d0d8da;stroke:#afbcc0"
       r="15"
       cy="16"
       cx="16"
       id="Oval" />
    <g
       aria-label="2"
       style="font-weight:400;font-size:18px;font-family:Roboto-Medium, Roboto;fill:#ffffff"
       id="1">
      <path
         d="m 20.429687,22 h -8.859374 v -1.836914 q 0.922851,-0.791016 1.845703,-1.582031 0.93164,-0.791016 1.731445,-1.573243 1.6875,-1.634765 2.311523,-2.592773 0.624024,-0.966797 0.624024,-2.083008 0,-1.019531 -0.676758,-1.59082 -0.667969,-0.580078 -1.87207,-0.580078 -0.799805,0 -1.731446,0.28125 -0.93164,0.28125 -1.819336,0.861328 h -0.08789 V 9.4580078 q 0.624023,-0.3076172 1.661133,-0.5625 1.045898,-0.2548828 2.021484,-0.2548828 2.012695,0 3.155273,0.9755859 1.142579,0.9667971 1.142579,2.6279301 0,0.74707 -0.19336,1.397461 -0.18457,0.641601 -0.553711,1.221679 -0.342773,0.544922 -0.808594,1.072266 -0.457031,0.527344 -1.11621,1.168945 -0.94043,0.922852 -1.942383,1.792969 -1.001953,0.861328 -1.872071,1.599609 h 7.040039 z"
         style=""
         id="path5160" />
    </g>
  </g>
</svg>
