<?xml version="1.0" encoding="UTF-8" standalone="no"?>
<!-- Created with Inkscape (http://www.inkscape.org/) -->

<svg
   xmlns:dc="http://purl.org/dc/elements/1.1/"
   xmlns:cc="http://creativecommons.org/ns#"
   xmlns:rdf="http://www.w3.org/1999/02/22-rdf-syntax-ns#"
   xmlns:svg="http://www.w3.org/2000/svg"
   xmlns="http://www.w3.org/2000/svg"
   xmlns:sodipodi="http://sodipodi.sourceforge.net/DTD/sodipodi-0.dtd"
   xmlns:inkscape="http://www.inkscape.org/namespaces/inkscape"
   width="8.2020836mm"
   height="8.2020836mm"
   viewBox="0 0 8.2020836 8.2020836"
   version="1.1"
   id="svg8"
   sodipodi:docname="wizard-3.svg"
   inkscape:version="0.92.3 (2405546, 2018-03-11)">
  <defs
     id="defs2" />
  <sodipodi:namedview
     id="base"
     pagecolor="#ffffff"
     bordercolor="#666666"
     borderopacity="1.0"
     inkscape:pageopacity="0.0"
     inkscape:pageshadow="2"
     inkscape:zoom="24.890159"
     inkscape:cx="8.9500379"
     inkscape:cy="17.39564"
     inkscape:document-units="mm"
     inkscape:current-layer="wizard-1"
     showgrid="false"
     inkscape:window-width="1920"
     inkscape:window-height="1137"
     inkscape:window-x="1912"
     inkscape:window-y="-8"
     inkscape:window-maximized="1" />
  <metadata
     id="metadata5">
    <rdf:RDF>
      <cc:Work
         rdf:about="">
        <dc:format>image/svg+xml</dc:format>
        <dc:type
           rdf:resource="http://purl.org/dc/dcmitype/StillImage" />
        <dc:title></dc:title>
      </cc:Work>
    </rdf:RDF>
  </metadata>
  <g
     inkscape:label="Layer 1"
     inkscape:groupmode="layer"
     id="layer1"
     transform="translate(181.56238,1.4403056)">
    <g
       id="Page-1"
       transform="matrix(0.26458333,0,0,0.26458333,-181.69467,-1.5725973)"
       style="fill:none;fill-rule:evenodd;stroke:none;stroke-width:1">
      <g
         transform="translate(1,1)"
         id="wizard-1">
        <circle
           r="15"
           cy="15"
           cx="15"
           id="Oval"
           style="fill:#88154f;stroke:#6d0f3f" />
        <g
           aria-label="3"
           style="font-weight:400;font-size:18px;font-family:Roboto-Medium, Roboto;fill:#ffffff"
           id="1">
          <path
             d="m 18.27832,15.37793 q 0.421875,0.377929 0.694336,0.949218 0.272461,0.571289 0.272461,1.476563 0,0.896484 -0.325195,1.643555 -0.325195,0.74707 -0.914063,1.300781 -0.659179,0.615234 -1.555664,0.914062 -0.887695,0.290039 -1.951172,0.290039 -1.089843,0 -2.144531,-0.263671 -1.054687,-0.254883 -1.731445,-0.5625 v -1.836915 h 0.131836 q 0.74707,0.492188 1.757812,0.817383 1.010743,0.325196 1.951172,0.325196 0.553711,0 1.177735,-0.184571 0.624023,-0.18457 1.010742,-0.544922 0.404297,-0.386718 0.597656,-0.852539 0.202148,-0.46582 0.202148,-1.177734 0,-0.703125 -0.228515,-1.160156 -0.219727,-0.465821 -0.615235,-0.729492 -0.395507,-0.272461 -0.958007,-0.369141 -0.5625,-0.105469 -1.212891,-0.105469 h -0.791016 v -1.458984 h 0.615235 q 1.335937,0 2.126953,-0.553711 0.799805,-0.5625 0.799805,-1.634766 0,-0.474609 -0.202149,-0.826172 -0.202148,-0.360351 -0.5625,-0.588867 -0.37793,-0.228515 -0.808594,-0.3164061 -0.430664,-0.087891 -0.975586,-0.087891 -0.83496,0 -1.77539,0.2988281 -0.94043,0.298829 -1.775391,0.84375 h -0.08789 V 9.1464844 q 0.624023,-0.3076172 1.661132,-0.5625 1.045899,-0.2636719 2.021485,-0.2636719 0.958008,0 1.6875,0.1757813 0.729492,0.1757812 1.318359,0.5625 0.632813,0.421875 0.958008,1.0195312 0.325195,0.597656 0.325195,1.397461 0,1.089844 -0.773437,1.907227 -0.764649,0.808593 -1.810547,1.019531 v 0.123047 q 0.421875,0.07031 0.966797,0.298828 0.544922,0.219726 0.922851,0.553711 z"
             id="path869"
             inkscape:connector-curvature="0" />
        </g>
      </g>
    </g>
  </g>
</svg>
