<?xml version="1.0" encoding="UTF-8" standalone="no"?>
<!-- Created with Inkscape (http://www.inkscape.org/) -->

<svg
   xmlns:dc="http://purl.org/dc/elements/1.1/"
   xmlns:cc="http://creativecommons.org/ns#"
   xmlns:rdf="http://www.w3.org/1999/02/22-rdf-syntax-ns#"
   xmlns:svg="http://www.w3.org/2000/svg"
   xmlns="http://www.w3.org/2000/svg"
   xmlns:sodipodi="http://sodipodi.sourceforge.net/DTD/sodipodi-0.dtd"
   xmlns:inkscape="http://www.inkscape.org/namespaces/inkscape"
   width="8.2020836mm"
   height="8.2020836mm"
   viewBox="0 0 8.2020836 8.2020836"
   version="1.1"
   id="svg8"
   sodipodi:docname="wizard-2.svg"
   inkscape:version="0.92.3 (2405546, 2018-03-11)">
  <defs
     id="defs2" />
  <sodipodi:namedview
     id="base"
     pagecolor="#ffffff"
     bordercolor="#666666"
     borderopacity="1.0"
     inkscape:pageopacity="0.0"
     inkscape:pageshadow="2"
     inkscape:zoom="24.890159"
     inkscape:cx="8.9500379"
     inkscape:cy="17.39564"
     inkscape:document-units="mm"
     inkscape:current-layer="wizard-1"
     showgrid="false"
     inkscape:window-width="1920"
     inkscape:window-height="1137"
     inkscape:window-x="1912"
     inkscape:window-y="-8"
     inkscape:window-maximized="1" />
  <metadata
     id="metadata5">
    <rdf:RDF>
      <cc:Work
         rdf:about="">
        <dc:format>image/svg+xml</dc:format>
        <dc:type
           rdf:resource="http://purl.org/dc/dcmitype/StillImage" />
        <dc:title />
      </cc:Work>
    </rdf:RDF>
  </metadata>
  <g
     inkscape:label="Layer 1"
     inkscape:groupmode="layer"
     id="layer1"
     transform="translate(181.56238,1.4403056)">
    <g
       id="Page-1"
       transform="matrix(0.26458333,0,0,0.26458333,-181.69467,-1.5725973)"
       style="fill:none;fill-rule:evenodd;stroke:none;stroke-width:1">
      <g
         transform="translate(1,1)"
         id="wizard-1">
        <circle
           r="15"
           cy="15"
           cx="15"
           id="Oval"
           style="fill:#88154f;stroke:#6d0f3f" />
        <g
           aria-label="2"
           style="font-weight:400;font-size:18px;font-family:Roboto-Medium, Roboto;fill:#ffffff"
           id="1">
          <path
             d="m 19.429687,21.679687 h -8.859374 v -1.836914 q 0.922851,-0.791015 1.845703,-1.582031 0.93164,-0.791015 1.731445,-1.573242 1.6875,-1.634766 2.311523,-2.592773 0.624024,-0.966797 0.624024,-2.083008 0,-1.019531 -0.676758,-1.590821 -0.667969,-0.5800777 -1.87207,-0.5800777 -0.799805,0 -1.731446,0.2812497 -0.93164,0.28125 -1.819336,0.861328 h -0.08789 V 9.1376953 q 0.624023,-0.3076172 1.661133,-0.5625 1.045898,-0.2548828 2.021484,-0.2548828 2.012695,0 3.155273,0.9755859 1.142579,0.9667966 1.142579,2.6279296 0,0.74707 -0.19336,1.397461 -0.18457,0.641602 -0.553711,1.22168 -0.342773,0.544922 -0.808594,1.072265 -0.457031,0.527344 -1.11621,1.168946 -0.94043,0.922851 -1.942383,1.792968 -1.001953,0.861329 -1.872071,1.59961 h 7.040039 z"
             id="path866"
             inkscape:connector-curvature="0" />
        </g>
      </g>
    </g>
  </g>
</svg>
