<?xml version="1.0" encoding="UTF-8" standalone="no"?>
<svg
   xmlns:dc="http://purl.org/dc/elements/1.1/"
   xmlns:cc="http://creativecommons.org/ns#"
   xmlns:rdf="http://www.w3.org/1999/02/22-rdf-syntax-ns#"
   xmlns:svg="http://www.w3.org/2000/svg"
   xmlns="http://www.w3.org/2000/svg"
   xmlns:sodipodi="http://sodipodi.sourceforge.net/DTD/sodipodi-0.dtd"
   xmlns:inkscape="http://www.inkscape.org/namespaces/inkscape"
   width="32px"
   height="32px"
   viewBox="0 0 32 32"
   version="1.1"
   id="svg900"
   sodipodi:docname="wizard-3-inactive.svg"
   inkscape:version="0.92.3 (2405546, 2018-03-11)">
  <metadata
     id="metadata906">
    <rdf:RDF>
      <cc:Work
         rdf:about="">
        <dc:format>image/svg+xml</dc:format>
        <dc:type
           rdf:resource="http://purl.org/dc/dcmitype/StillImage" />
        <dc:title>wizard-1-inactive</dc:title>
      </cc:Work>
    </rdf:RDF>
  </metadata>
  <defs
     id="defs904" />
  <sodipodi:namedview
     pagecolor="#ffffff"
     bordercolor="#666666"
     borderopacity="1"
     objecttolerance="10"
     gridtolerance="10"
     guidetolerance="10"
     inkscape:pageopacity="0"
     inkscape:pageshadow="2"
     inkscape:window-width="1920"
     inkscape:window-height="1137"
     id="namedview902"
     showgrid="false"
     inkscape:zoom="7.375"
     inkscape:cx="16"
     inkscape:cy="16"
     inkscape:window-x="1912"
     inkscape:window-y="-8"
     inkscape:window-maximized="1"
     inkscape:current-layer="Page-1" />
  <!-- Generator: Sketch 52.5 (67469) - http://www.bohemiancoding.com/sketch -->
  <title
     id="title890">wizard-1-inactive</title>
  <desc
     id="desc892">Created with Sketch.</desc>
  <g
     id="Page-1"
     stroke="none"
     stroke-width="1"
     fill="none"
     fill-rule="evenodd">
    <circle
       style="fill:#d0d8da;stroke:#afbcc0"
       r="15"
       cy="16"
       cx="16"
       id="Oval" />
    <g
       aria-label="3"
       style="font-weight:400;font-size:18px;font-family:Roboto-Medium, Roboto;fill:#ffffff"
       id="1">
      <path
         d="m 19.27832,15.698242 q 0.421875,0.37793 0.694336,0.949219 0.272461,0.571289 0.272461,1.476562 0,0.896485 -0.325195,1.643555 -0.325195,0.74707 -0.914063,1.300781 -0.659179,0.615235 -1.555664,0.914063 -0.887695,0.290039 -1.951172,0.290039 -1.089843,0 -2.144531,-0.263672 -1.054687,-0.254883 -1.731445,-0.5625 v -1.836914 h 0.131836 q 0.74707,0.492187 1.757812,0.817383 1.010743,0.325195 1.951172,0.325195 0.553711,0 1.177735,-0.18457 0.624023,-0.184571 1.010742,-0.544922 0.404297,-0.386719 0.597656,-0.852539 0.202148,-0.46582 0.202148,-1.177735 0,-0.703125 -0.228515,-1.160156 -0.219727,-0.46582 -0.615235,-0.729492 -0.395507,-0.272461 -0.958007,-0.369141 -0.5625,-0.105468 -1.212891,-0.105468 h -0.791016 v -1.458985 h 0.615235 q 1.335937,0 2.126953,-0.553711 0.799805,-0.5625 0.799805,-1.634765 0,-0.47461 -0.202149,-0.826172 -0.202148,-0.360352 -0.5625,-0.588867 -0.37793,-0.228516 -0.808594,-0.316407 -0.430664,-0.08789 -0.975586,-0.08789 -0.83496,0 -1.77539,0.298828 -0.94043,0.298828 -1.775391,0.84375 h -0.08789 V 9.4667969 q 0.624023,-0.3076172 1.661132,-0.5625 1.045899,-0.2636719 2.021485,-0.2636719 0.958008,0 1.6875,0.1757813 0.729492,0.1757812 1.318359,0.5625 0.632813,0.421875 0.958008,1.0195317 0.325195,0.597656 0.325195,1.39746 0,1.089844 -0.773437,1.907227 -0.764649,0.808594 -1.810547,1.019531 v 0.123047 q 0.421875,0.07031 0.966797,0.298828 0.544922,0.219727 0.922851,0.553711 z"
         style=""
         id="path5163" />
    </g>
  </g>
</svg>
